{
	"asset":{
		"generator":"Khronos glTF Blender I/O v4.0.44",
		"version":"2.0"
	},
	"scene":0,
	"scenes":[
		{
			"name":"Scene",
			"nodes":[
				0
			]
		}
	],
	"nodes":[
		{
			"mesh":0,
			"name":"Cigarette"
		}
	],
	"materials":[
		{
			"doubleSided":true,
			"name":"Cigarette",
			"normalTexture":{
				"index":0
			},
			"pbrMetallicRoughness":{
				"baseColorTexture":{
					"index":1
				},
				"metallicRoughnessTexture":{
					"index":2
				}
			}
		}
	],
	"meshes":[
		{
			"name":"\u7db2\u683c",
			"primitives":[
				{
					"attributes":{
						"POSITION":0,
						"NORMAL":1,
						"TEXCOORD_0":2
					},
					"indices":3,
					"material":0
				}
			]
		}
	],
	"textures":[
		{
			"sampler":0,
			"source":0
		},
		{
			"sampler":0,
			"source":1
		},
		{
			"sampler":0,
			"source":2
		}
	],
	"images":[
		{
			"mimeType":"image/png",
			"name":"Cigarette_Normal.psd",
			"uri":"Cigarette_Normal_psd.png"
		},
		{
			"mimeType":"image/png",
			"name":"Cigarette_Diffuse.psd",
			"uri":"Cigarette_Diffuse_psd.png"
		},
		{
			"mimeType":"image/png",
			"name":"Cigarette_Metallic",
			"uri":"Cigarette_Metallic.png"
		}
	],
	"accessors":[
		{
			"bufferView":0,
			"componentType":5126,
			"count":865,
			"max":[
				0.26723748445510864,
				1.0069204568862915,
				0.10605165362358093
			],
			"min":[
				-0.26704803109169006,
				0.03770877793431282,
				-0.37401843070983887
			],
			"type":"VEC3"
		},
		{
			"bufferView":1,
			"componentType":5126,
			"count":865,
			"type":"VEC3"
		},
		{
			"bufferView":2,
			"componentType":5126,
			"count":865,
			"type":"VEC2"
		},
		{
			"bufferView":3,
			"componentType":5123,
			"count":1980,
			"type":"SCALAR"
		}
	],
	"bufferViews":[
		{
			"buffer":0,
			"byteLength":10380,
			"byteOffset":0,
			"target":34962
		},
		{
			"buffer":0,
			"byteLength":10380,
			"byteOffset":10380,
			"target":34962
		},
		{
			"buffer":0,
			"byteLength":6920,
			"byteOffset":20760,
			"target":34962
		},
		{
			"buffer":0,
			"byteLength":3960,
			"byteOffset":27680,
			"target":34963
		}
	],
	"samplers":[
		{
			"magFilter":9729,
			"minFilter":9987
		}
	],
	"buffers":[
		{
			"byteLength":31640,
			"uri":"Cigarette.bin"
		}
	]
}
