{
	"asset":{
		"generator":"Khronos glTF Blender I/O v4.0.44",
		"version":"2.0"
	},
	"scene":0,
	"scenes":[
		{
			"name":"Scene",
			"nodes":[
				0
			]
		}
	],
	"nodes":[
		{
			"mesh":0,
			"name":"Key"
		}
	],
	"materials":[
		{
			"doubleSided":true,
			"name":"Key",
			"normalTexture":{
				"index":0
			},
			"pbrMetallicRoughness":{
				"baseColorTexture":{
					"index":1
				},
				"metallicRoughnessTexture":{
					"index":2
				}
			}
		}
	],
	"meshes":[
		{
			"name":"Key",
			"primitives":[
				{
					"attributes":{
						"POSITION":0,
						"NORMAL":1,
						"TEXCOORD_0":2,
						"TEXCOORD_1":3
					},
					"indices":4,
					"material":0
				}
			]
		}
	],
	"textures":[
		{
			"sampler":0,
			"source":0
		},
		{
			"sampler":0,
			"source":1
		},
		{
			"sampler":0,
			"source":2
		}
	],
	"images":[
		{
			"mimeType":"image/png",
			"name":"Key_Normal",
			"uri":"Key_Normal.png"
		},
		{
			"mimeType":"image/png",
			"name":"Key_Diffuse",
			"uri":"Key_Diffuse.png"
		},
		{
			"mimeType":"image/png",
			"name":"Key_Metallic",
			"uri":"Key_Metallic.png"
		}
	],
	"accessors":[
		{
			"bufferView":0,
			"componentType":5126,
			"count":587,
			"max":[
				0.45079708099365234,
				0.037805426865816116,
				0.22403593361377716
			],
			"min":[
				-0.45079708099365234,
				-0.038000158965587616,
				-0.2240360975265503
			],
			"type":"VEC3"
		},
		{
			"bufferView":1,
			"componentType":5126,
			"count":587,
			"type":"VEC3"
		},
		{
			"bufferView":2,
			"componentType":5126,
			"count":587,
			"type":"VEC2"
		},
		{
			"bufferView":3,
			"componentType":5126,
			"count":587,
			"type":"VEC2"
		},
		{
			"bufferView":4,
			"componentType":5123,
			"count":1662,
			"type":"SCALAR"
		}
	],
	"bufferViews":[
		{
			"buffer":0,
			"byteLength":7044,
			"byteOffset":0,
			"target":34962
		},
		{
			"buffer":0,
			"byteLength":7044,
			"byteOffset":7044,
			"target":34962
		},
		{
			"buffer":0,
			"byteLength":4696,
			"byteOffset":14088,
			"target":34962
		},
		{
			"buffer":0,
			"byteLength":4696,
			"byteOffset":18784,
			"target":34962
		},
		{
			"buffer":0,
			"byteLength":3324,
			"byteOffset":23480,
			"target":34963
		}
	],
	"samplers":[
		{
			"magFilter":9729,
			"minFilter":9987
		}
	],
	"buffers":[
		{
			"byteLength":26804,
			"uri":"Key.bin"
		}
	]
}
