{
	"asset":{
		"generator":"Khronos glTF Blender I/O v4.0.44",
		"version":"2.0"
	},
	"scene":0,
	"scenes":[
		{
			"name":"Scene",
			"nodes":[
				0
			]
		}
	],
	"nodes":[
		{
			"mesh":0,
			"name":"Cookie"
		}
	],
	"materials":[
		{
			"doubleSided":true,
			"name":"Cookie",
			"normalTexture":{
				"index":0
			},
			"pbrMetallicRoughness":{
				"baseColorTexture":{
					"index":1
				},
				"metallicFactor":0
			}
		}
	],
	"meshes":[
		{
			"name":"Cookie.001",
			"primitives":[
				{
					"attributes":{
						"POSITION":0,
						"NORMAL":1,
						"TEXCOORD_0":2
					},
					"indices":3,
					"material":0
				}
			]
		}
	],
	"textures":[
		{
			"sampler":0,
			"source":0
		},
		{
			"sampler":0,
			"source":1
		}
	],
	"images":[
		{
			"mimeType":"image/png",
			"name":"Cookie_Normal",
			"uri":"Cookie_Normal.png"
		},
		{
			"mimeType":"image/png",
			"name":"Cookie_Diffuse",
			"uri":"Cookie_Diffuse.png"
		}
	],
	"accessors":[
		{
			"bufferView":0,
			"componentType":5126,
			"count":297,
			"max":[
				0.5915969014167786,
				0.24308744072914124,
				0.5930795669555664
			],
			"min":[
				-0.5915968418121338,
				-0.014132596552371979,
				-0.5930795669555664
			],
			"type":"VEC3"
		},
		{
			"bufferView":1,
			"componentType":5126,
			"count":297,
			"type":"VEC3"
		},
		{
			"bufferView":2,
			"componentType":5126,
			"count":297,
			"type":"VEC2"
		},
		{
			"bufferView":3,
			"componentType":5123,
			"count":1086,
			"type":"SCALAR"
		}
	],
	"bufferViews":[
		{
			"buffer":0,
			"byteLength":3564,
			"byteOffset":0,
			"target":34962
		},
		{
			"buffer":0,
			"byteLength":3564,
			"byteOffset":3564,
			"target":34962
		},
		{
			"buffer":0,
			"byteLength":2376,
			"byteOffset":7128,
			"target":34962
		},
		{
			"buffer":0,
			"byteLength":2172,
			"byteOffset":9504,
			"target":34963
		}
	],
	"samplers":[
		{
			"magFilter":9729,
			"minFilter":9987
		}
	],
	"buffers":[
		{
			"byteLength":11676,
			"uri":"Cookie.bin"
		}
	]
}
