{
	"asset":{
		"generator":"Khronos glTF Blender I/O v4.0.44",
		"version":"2.0"
	},
	"scene":0,
	"scenes":[
		{
			"name":"Scene",
			"nodes":[
				0
			]
		}
	],
	"nodes":[
		{
			"mesh":0,
			"name":"Ecig"
		}
	],
	"materials":[
		{
			"doubleSided":true,
			"name":"Ecig",
			"normalTexture":{
				"index":0
			},
			"pbrMetallicRoughness":{
				"baseColorTexture":{
					"index":1
				},
				"metallicRoughnessTexture":{
					"index":2
				}
			}
		}
	],
	"meshes":[
		{
			"name":"Ecig",
			"primitives":[
				{
					"attributes":{
						"POSITION":0,
						"NORMAL":1,
						"TEXCOORD_0":2
					},
					"indices":3,
					"material":0
				}
			]
		}
	],
	"textures":[
		{
			"sampler":0,
			"source":0
		},
		{
			"sampler":0,
			"source":1
		},
		{
			"sampler":0,
			"source":2
		}
	],
	"images":[
		{
			"mimeType":"image/png",
			"name":"Ecig_Normal",
			"uri":"Ecig_Normal.png"
		},
		{
			"mimeType":"image/png",
			"name":"Ecig_Diffuse",
			"uri":"Ecig_Diffuse.png"
		},
		{
			"mimeType":"image/png",
			"name":"Ecig_Metallic",
			"uri":"Ecig_Metallic.png"
		}
	],
	"accessors":[
		{
			"bufferView":0,
			"componentType":5126,
			"count":599,
			"max":[
				0.5906467437744141,
				0.9095853567123413,
				0.5685319900512695
			],
			"min":[
				-0.5961395502090454,
				2.682209014892578e-07,
				-0.5917940139770508
			],
			"type":"VEC3"
		},
		{
			"bufferView":1,
			"componentType":5126,
			"count":599,
			"type":"VEC3"
		},
		{
			"bufferView":2,
			"componentType":5126,
			"count":599,
			"type":"VEC2"
		},
		{
			"bufferView":3,
			"componentType":5123,
			"count":2190,
			"type":"SCALAR"
		}
	],
	"bufferViews":[
		{
			"buffer":0,
			"byteLength":7188,
			"byteOffset":0,
			"target":34962
		},
		{
			"buffer":0,
			"byteLength":7188,
			"byteOffset":7188,
			"target":34962
		},
		{
			"buffer":0,
			"byteLength":4792,
			"byteOffset":14376,
			"target":34962
		},
		{
			"buffer":0,
			"byteLength":4380,
			"byteOffset":19168,
			"target":34963
		}
	],
	"samplers":[
		{
			"magFilter":9729,
			"minFilter":9987
		}
	],
	"buffers":[
		{
			"byteLength":23548,
			"uri":"Ecig.bin"
		}
	]
}
